<svg xmlns="http://www.w3.org/2000/svg" xmlns:xlink="http://www.w3.org/1999/xlink" width="500" zoomAndPan="magnify" viewBox="0 0 375 374.999991" height="500" preserveAspectRatio="xMidYMid meet" version="1.0"><defs><clipPath id="959ec465a0"><path d="M 0 0 L 373.910156 0 L 373.910156 373.910156 L 0 373.910156 Z M 0 0 " clip-rule="nonzero"/></clipPath><clipPath id="b091501050"><path d="M 373.910156 186.957031 C 373.910156 190.015625 373.835938 193.074219 373.6875 196.128906 C 373.535156 199.183594 373.3125 202.234375 373.011719 205.28125 C 372.710938 208.324219 372.335938 211.359375 371.886719 214.386719 C 371.4375 217.414062 370.914062 220.429688 370.320312 223.429688 C 369.722656 226.429688 369.050781 229.414062 368.308594 232.382812 C 367.566406 235.351562 366.75 238.296875 365.859375 241.226562 C 364.972656 244.152344 364.011719 247.058594 362.980469 249.9375 C 361.953125 252.820312 360.851562 255.671875 359.679688 258.5 C 358.507812 261.328125 357.269531 264.125 355.960938 266.890625 C 354.652344 269.65625 353.277344 272.386719 351.835938 275.085938 C 350.394531 277.785156 348.886719 280.445312 347.3125 283.070312 C 345.738281 285.695312 344.101562 288.277344 342.402344 290.824219 C 340.703125 293.367188 338.941406 295.867188 337.121094 298.324219 C 335.296875 300.78125 333.414062 303.195312 331.472656 305.558594 C 329.53125 307.925781 327.535156 310.238281 325.480469 312.507812 C 323.425781 314.773438 321.316406 316.988281 319.152344 319.152344 C 316.988281 321.316406 314.773438 323.425781 312.507812 325.480469 C 310.238281 327.535156 307.925781 329.53125 305.558594 331.472656 C 303.195312 333.414062 300.78125 335.296875 298.324219 337.121094 C 295.867188 338.941406 293.367188 340.703125 290.824219 342.402344 C 288.277344 344.101562 285.695312 345.738281 283.070312 347.3125 C 280.445312 348.886719 277.785156 350.394531 275.085938 351.835938 C 272.386719 353.277344 269.65625 354.652344 266.890625 355.960938 C 264.125 357.269531 261.328125 358.507812 258.5 359.679688 C 255.671875 360.851562 252.820312 361.953125 249.9375 362.980469 C 247.058594 364.011719 244.152344 364.972656 241.226562 365.859375 C 238.296875 366.75 235.351562 367.566406 232.382812 368.308594 C 229.414062 369.050781 226.429688 369.722656 223.429688 370.320312 C 220.429688 370.914062 217.414062 371.4375 214.386719 371.886719 C 211.359375 372.335938 208.324219 372.710938 205.28125 373.011719 C 202.234375 373.3125 199.183594 373.535156 196.128906 373.6875 C 193.074219 373.835938 190.015625 373.910156 186.957031 373.910156 C 183.894531 373.910156 180.839844 373.835938 177.78125 373.6875 C 174.726562 373.535156 171.675781 373.3125 168.628906 373.011719 C 165.585938 372.710938 162.550781 372.335938 159.523438 371.886719 C 156.496094 371.4375 153.484375 370.914062 150.480469 370.320312 C 147.480469 369.722656 144.496094 369.050781 141.527344 368.308594 C 138.5625 367.566406 135.613281 366.75 132.683594 365.859375 C 129.757812 364.972656 126.851562 364.011719 123.972656 362.980469 C 121.089844 361.953125 118.238281 360.851562 115.410156 359.679688 C 112.582031 358.507812 109.789062 357.269531 107.023438 355.960938 C 104.253906 354.652344 101.523438 353.277344 98.824219 351.835938 C 96.125 350.394531 93.464844 348.886719 90.839844 347.3125 C 88.214844 345.738281 85.632812 344.101562 83.089844 342.402344 C 80.542969 340.703125 78.042969 338.941406 75.585938 337.121094 C 73.128906 335.296875 70.71875 333.414062 68.351562 331.472656 C 65.988281 329.53125 63.671875 327.535156 61.402344 325.480469 C 59.136719 323.425781 56.921875 321.316406 54.757812 319.152344 C 52.59375 316.988281 50.484375 314.773438 48.429688 312.507812 C 46.375 310.238281 44.378906 307.925781 42.4375 305.558594 C 40.496094 303.195312 38.613281 300.78125 36.792969 298.324219 C 34.96875 295.867188 33.207031 293.367188 31.507812 290.824219 C 29.808594 288.277344 28.171875 285.695312 26.597656 283.070312 C 25.027344 280.445312 23.519531 277.785156 22.074219 275.085938 C 20.632812 272.386719 19.257812 269.65625 17.949219 266.890625 C 16.640625 264.125 15.402344 261.328125 14.230469 258.5 C 13.058594 255.671875 11.960938 252.820312 10.929688 249.9375 C 9.898438 247.058594 8.9375 244.152344 8.050781 241.226562 C 7.160156 238.296875 6.347656 235.351562 5.601562 232.382812 C 4.859375 229.414062 4.1875 226.429688 3.59375 223.429688 C 2.996094 220.429688 2.472656 217.414062 2.023438 214.386719 C 1.574219 211.359375 1.199219 208.324219 0.898438 205.28125 C 0.601562 202.234375 0.375 199.183594 0.226562 196.128906 C 0.0742188 193.074219 0 190.015625 0 186.957031 C 0 183.894531 0.0742188 180.839844 0.226562 177.78125 C 0.375 174.726562 0.601562 171.675781 0.898438 168.628906 C 1.199219 165.585938 1.574219 162.550781 2.023438 159.523438 C 2.472656 156.496094 2.996094 153.484375 3.59375 150.480469 C 4.1875 147.480469 4.859375 144.496094 5.601562 141.527344 C 6.347656 138.5625 7.160156 135.613281 8.050781 132.683594 C 8.9375 129.757812 9.898438 126.851562 10.929688 123.972656 C 11.960938 121.089844 13.058594 118.238281 14.230469 115.410156 C 15.402344 112.582031 16.640625 109.789062 17.949219 107.023438 C 19.257812 104.253906 20.632812 101.523438 22.074219 98.824219 C 23.519531 96.125 25.027344 93.464844 26.597656 90.839844 C 28.171875 88.214844 29.808594 85.632812 31.507812 83.089844 C 33.207031 80.542969 34.96875 78.042969 36.792969 75.585938 C 38.613281 73.128906 40.496094 70.71875 42.4375 68.351562 C 44.378906 65.988281 46.375 63.671875 48.429688 61.402344 C 50.484375 59.136719 52.59375 56.921875 54.757812 54.757812 C 56.921875 52.59375 59.136719 50.484375 61.402344 48.429688 C 63.671875 46.375 65.988281 44.378906 68.351562 42.4375 C 70.71875 40.496094 73.128906 38.613281 75.585938 36.792969 C 78.042969 34.96875 80.542969 33.207031 83.089844 31.507812 C 85.632812 29.808594 88.214844 28.171875 90.839844 26.597656 C 93.464844 25.027344 96.125 23.519531 98.824219 22.074219 C 101.523438 20.632812 104.253906 19.257812 107.023438 17.949219 C 109.789062 16.640625 112.582031 15.402344 115.410156 14.230469 C 118.238281 13.058594 121.089844 11.960938 123.972656 10.929688 C 126.851562 9.898438 129.757812 8.9375 132.683594 8.050781 C 135.613281 7.160156 138.5625 6.347656 141.527344 5.601562 C 144.496094 4.859375 147.480469 4.1875 150.480469 3.59375 C 153.484375 2.996094 156.496094 2.472656 159.523438 2.023438 C 162.550781 1.574219 165.585938 1.199219 168.628906 0.898438 C 171.675781 0.601562 174.726562 0.375 177.78125 0.226562 C 180.839844 0.0742188 183.894531 0 186.957031 0 C 190.015625 0 193.074219 0.0742188 196.128906 0.226562 C 199.183594 0.375 202.234375 0.601562 205.28125 0.898438 C 208.324219 1.199219 211.359375 1.574219 214.386719 2.023438 C 217.414062 2.472656 220.429688 2.996094 223.429688 3.59375 C 226.429688 4.1875 229.414062 4.859375 232.382812 5.601562 C 235.351562 6.347656 238.296875 7.160156 241.226562 8.050781 C 244.152344 8.9375 247.058594 9.898438 249.9375 10.929688 C 252.820312 11.960938 255.671875 13.058594 258.5 14.230469 C 261.328125 15.402344 264.125 16.640625 266.890625 17.949219 C 269.65625 19.257812 272.386719 20.632812 275.085938 22.074219 C 277.785156 23.519531 280.445312 25.027344 283.070312 26.597656 C 285.695312 28.171875 288.277344 29.808594 290.824219 31.507812 C 293.367188 33.207031 295.867188 34.96875 298.324219 36.792969 C 300.78125 38.613281 303.195312 40.496094 305.558594 42.4375 C 307.925781 44.378906 310.238281 46.375 312.507812 48.429688 C 314.773438 50.484375 316.988281 52.59375 319.152344 54.757812 C 321.316406 56.921875 323.425781 59.136719 325.480469 61.402344 C 327.535156 63.671875 329.53125 65.988281 331.472656 68.351562 C 333.414062 70.71875 335.296875 73.128906 337.121094 75.585938 C 338.941406 78.042969 340.703125 80.542969 342.402344 83.089844 C 344.101562 85.632812 345.738281 88.214844 347.3125 90.839844 C 348.886719 93.464844 350.394531 96.125 351.835938 98.824219 C 353.277344 101.523438 354.652344 104.253906 355.960938 107.023438 C 357.269531 109.789062 358.507812 112.582031 359.679688 115.410156 C 360.851562 118.238281 361.953125 121.089844 362.980469 123.972656 C 364.011719 126.851562 364.972656 129.757812 365.859375 132.683594 C 366.75 135.613281 367.566406 138.5625 368.308594 141.527344 C 369.050781 144.496094 369.722656 147.480469 370.320312 150.480469 C 370.914062 153.484375 371.4375 156.496094 371.886719 159.523438 C 372.335938 162.550781 372.710938 165.585938 373.011719 168.628906 C 373.3125 171.675781 373.535156 174.726562 373.6875 177.78125 C 373.835938 180.839844 373.910156 183.894531 373.910156 186.957031 Z M 373.910156 186.957031 " clip-rule="nonzero"/></clipPath><clipPath id="8207ed1580"><path d="M 23.585938 23.585938 L 350.757812 23.585938 L 350.757812 350.757812 L 23.585938 350.757812 Z M 23.585938 23.585938 " clip-rule="nonzero"/></clipPath><clipPath id="ccd792ea66"><path d="M 187.171875 23.585938 C 187.171875 113.929688 260.410156 187.171875 350.757812 187.171875 C 260.410156 187.171875 187.171875 260.410156 187.171875 350.757812 C 187.171875 260.410156 113.929688 187.171875 23.585938 187.171875 C 113.929688 187.171875 187.171875 113.929688 187.171875 23.585938 Z M 187.171875 23.585938 " clip-rule="evenodd"/></clipPath></defs><g clip-path="url(#959ec465a0)"><g clip-path="url(#b091501050)"><path fill="#000000" d="M 0 0 L 0 373.910156 L 373.910156 373.910156 L 373.910156 0 Z M 0 0 " fill-opacity="1" fill-rule="nonzero"/></g></g><g clip-path="url(#8207ed1580)"><g clip-path="url(#ccd792ea66)"><path fill="#ffffff" className="inner" d="M 350.757812 23.585938 L 23.585938 23.585938 L 23.585938 350.757812 L 350.757812 350.757812 Z M 350.757812 23.585938 " fill-opacity="1" fill-rule="nonzero"/></g></g></svg>