<svg xmlns="http://www.w3.org/2000/svg" xmlns:xlink="http://www.w3.org/1999/xlink" width="500" zoomAndPan="magnify" viewBox="0 0 375 374.999991" height="500" preserveAspectRatio="xMidYMid meet" version="1.0"><defs><clipPath id="2018a81aae"><path d="M 37.5 37.5 L 338.25 37.5 L 338.25 338.25 L 37.5 338.25 Z M 37.5 37.5 " clip-rule="nonzero"/></clipPath><clipPath id="7a14795f3e"><path d="M 187.875 37.5 C 187.875 120.550781 255.199219 187.875 338.25 187.875 C 255.199219 187.875 187.875 255.199219 187.875 338.25 C 187.875 255.199219 120.550781 187.875 37.5 187.875 C 120.550781 187.875 187.875 120.550781 187.875 37.5 Z M 187.875 37.5 " clip-rule="evenodd"/></clipPath></defs><rect x="-37.5" width="450" fill="transparent" y="-37.499999" height="449.999989" fill-opacity="1"/><rect x="-37.5" width="450" fill="#ffffff" y="-37.499999" height="449.999989" fill-opacity="1"/><rect x="-37.5" width="450" fill="#ffffff" y="-37.499999" height="449.999989" fill-opacity="1"/><g clip-path="url(#2018a81aae)"><g clip-path="url(#7a14795f3e)"><path fill="#200923" d="M 338.25 37.5 L 37.5 37.5 L 37.5 338.25 L 338.25 338.25 Z M 338.25 37.5 " fill-opacity="1" fill-rule="nonzero"/></g></g></svg>